<?xml version="1.0" encoding="UTF-8"?>
<svg height="128px" viewBox="0 0 128 128" width="128px" xmlns="http://www.w3.org/2000/svg">
    <path d="m 63.703125 0 c -35.230469 0.164062 -63.703125 28.769531 -63.703125 64 c 0 35.347656 28.652344 64 64 64 s 64 -28.652344 64 -64 s -28.652344 -64 -64 -64 c -0.097656 0 -0.199219 0 -0.296875 0 z m 0.296875 23.578125 c 22.324219 0 40.421875 18.097656 40.421875 40.421875 c 0 12.621094 -5.894531 24.515625 -15.9375 32.164062 l -7.417969 -7.421874 h -31.738281 l -9.394531 7.734374 c -10.289063 -7.625 -16.355469 -19.671874 -16.355469 -32.476562 c 0 -22.324219 18.097656 -40.421875 40.421875 -40.421875 z m 0 0" fill="#1a1a1a"/>
    <path d="m 64 1.324219 c -34.613281 0 -62.675781 28.0625 -62.675781 62.675781 s 28.0625 62.675781 62.675781 62.675781 s 62.675781 -28.0625 62.675781 -62.675781 s -28.0625 -62.675781 -62.675781 -62.675781 z m -0.277344 16.828125 c 0.09375 -0.003906 0.183594 -0.003906 0.277344 0 c 25.320312 0 45.847656 20.527344 45.851562 45.847656 c -0.003906 25.320312 -20.53125 45.847656 -45.851562 45.851562 c -25.320312 -0.003906 -45.847656 -20.53125 -45.847656 -45.851562 c -0.003906 -25.214844 20.355468 -45.695312 45.570312 -45.847656 z m 0 0" fill="#fff6d5"/>
</svg>
